<?xml version="1.0"?><svg width="139.84250666666665" height="196.53544" xmlns="http://www.w3.org/2000/svg" xmlns:xlink="http://www.w3.org/1999/xlink">
 <title>christmas hat</title>
 <defs>
  <linearGradient id="linearGradient2210">
   <stop stop-color="#ff1010" offset="0" id="stop2212"/>
   <stop stop-color="#000000" offset="1" id="stop2214"/>
  </linearGradient>
  <linearGradient id="linearGradient2200">
   <stop stop-color="#ff1010" id="stop2202" offset="0"/>
   <stop stop-color="#000000" id="stop2204" offset="1"/>
  </linearGradient>
  <linearGradient y2="1.434593" x2="1.208596" y1="0.015339" x1="0.277635" id="linearGradient2047" xlink:href="#linearGradient2200"/>
  <linearGradient y2="1.343243" x2="1.125858" y1="0.090685" x1="-0.001697" id="linearGradient2049" xlink:href="#linearGradient2210"/>
  <linearGradient y2="2.161494" x2="1.507695" y1="0.123661" x1="-0.001724" id="linearGradient2051" xlink:href="#linearGradient2210"/>
 </defs>
 <metadata id="metadata7">image/svg+xml</metadata>
 <g>
  <title>Layer 1</title>
  <g id="layer1">
   <path fill="#d0d0d0" fill-rule="nonzero" stroke-width="10" stroke-miterlimit="4" stroke-dashoffset="0" id="path2248" d="m112.875,134.84375l-1.15625,3.75l-1.46875,-3.59375l-0.03125,0.75l-0.375,-0.875l-0.0625,2.875l-1.53125,-2.34375l0.15625,0.875l-0.5,-0.71875l0.6875,3.84375l-3,-2.65625l1.40625,3l-3.03125,-1.8125l2.25,3.03125l-3.96875,-1.5l2.84375,2.65625l-3.84375,-0.71875l3.75,2.375l-3.09375,0.1875l-1.1875,0.0625l-0.25,0.03125l3.53125,1.125l-3.3125,0.75l0.53125,0.09375l-0.71875,0.15625l4.53125,0.625l-3.8125,1.9375l3.59375,-0.34375l-2.75,2.09375l3.03125,-0.84375l-2.25,2.5l3.53125,-1.6875l-2,3.3125l3.65625,-2.65625l-1.125,4.09375l0.125,-0.15625l-0.0625,0.21875l2.34375,-2.78125l-0.25,3.375l0,0.03125l0,0.15625l2.15625,-4.0625l0.875,4.375l0.8125,-3.5625l1.375,3.25l0.0625,-2.90625l1.59375,2.375l-0.5625,-3.34375l2.5625,2.625l-1.5625,-4.03125l4,2.4375l-0.28125,-0.40625l0.1875,0.125l-2.03125,-2.71875l3.5,1.28125l0.09375,0.03125l-3.25,-3.03125l4.59375,0.5625l-3.46875,-1.875l4,-0.21875l-3.71875,-1.21875l3.4375,-0.8125l-3.375,-0.5l3.125,-1.3125l-4.21875,0.125l3.4375,-2.5625l-1.09375,0.28125l0.78125,-0.59375l-2.9375,0.84375l2.15625,-2.34375l-0.5625,0.28125l0.28125,-0.34375l-3.71875,1.8125l1.875,-3.6875l-2.8125,2.34375l1,-3.53125l-2.71875,3.3125l0.3125,-4.03125l-1.6875,3.125l-0.40625,-3.3125z"/>
   <path fill="url(#linearGradient2047)" fill-rule="evenodd" stroke-width="1px" id="path1321" d="m40.40712,27.47839c-0.939449,-2.373901 -4.897514,4.410294 -6.847588,7.246777c-2.228321,3.241211 -4.547281,6.352814 -7.02511,9.404392c-2.596497,3.197727 -7.195572,4.653229 -9.38983,7.456635c-0.899364,1.149029 -0.417633,3.493671 0.328768,4.96669c1.475765,2.912426 3.623915,5.352802 5.702166,7.849102c1.985443,2.384827 3.992908,4.719543 6.398909,6.702194c3.172823,2.614563 6.112383,5.499611 9.645468,7.659142c4.169605,2.548584 8.189346,5.330315 12.564278,7.537315c3.151482,1.589806 6.27018,3.184837 9.612434,4.364128c5.75663,2.031181 11.530701,4.181503 17.47934,5.448212c3.902817,0.831062 7.907829,1.471268 11.903572,1.593857c1.598198,0.049034 4.638718,1.49839 4.504829,0.19529c-0.747971,-7.280212 -3.851166,-17.594872 -6.335197,-26.155418c-1.455933,-5.017441 -2.344681,-10.447399 -4.551903,-15.194641c-0.980392,-2.108574 -2.250534,-4.492027 -4.009399,-5.794384c-3.376228,-2.499928 -7.605904,-3.644508 -12.029022,-5.127468c-6.91695,-2.319065 -14.059265,-7.153976 -19.993828,-11.520264c-2.776485,-2.042774 -6.893604,-3.942245 -7.957886,-6.631557z"/>
   <path fill="#d0d0d0" fill-rule="nonzero" stroke-width="10" stroke-miterlimit="4" stroke-dashoffset="0" id="path3861" d="m14.875,43.40625c-0.45386,0.788719 -0.78029,4.847721 -1.32963,3.18581c-0.58722,-1.859909 -1.05175,-2.923832 -1.37618,-3.03083c-0.19783,0.7104 0.27001,4.443489 -0.89638,1.489922c-0.71297,-1.429642 -0.62557,-0.36697 -0.84696,-0.36945c-0.02631,1.053577 1.31455,4.79731 -0.39725,2.534397c0.01793,-1.253578 -1.21484,-0.82103 -1.67735,-1.563969c1.45946,1.645489 -0.08464,3.436211 -0.37942,0.791222c0.14908,-1.071041 -0.82135,1.355389 -1.04468,0.403969c1.36835,1.62096 -0.8069,3.137451 -0.9304,0.493141c-0.48904,-1.682831 -0.59373,-0.674271 -0.85169,-0.87125c0.18971,2.481579 -0.20446,2.68705 -1.24726,0.364059c-0.31865,-0.032642 -0.64619,-0.029091 -0.15334,2.156269c0.91982,2.924629 -0.96979,0.281929 -1.98789,-0.633751c-1.42604,-1.466011 1.91954,3.76416 0.1503,2.189739c-1.92701,-1.538509 -2.41597,-1.571598 -0.82239,0.575443c1.85652,2.224068 -1.40418,0.047218 -2.44219,-0.218071c-1.1131,-0.31089 3.03635,2.761681 1.68144,2.485668c-1.60918,-0.346939 -4.17242,-1.11797 -1.47098,0.45126c2.42584,1.27919 1.47588,1.591 -0.78712,1.526531c-2.78894,-0.109509 0.23794,0.666271 1.30362,1.11483c0.6507,0.499611 -2.98084,0.806961 -2.713,1.20631c0.92191,0.398788 4.90433,0.21357 3.46945,1.06208c-2.29879,-1.388519 0.52648,0.83704 -2.11011,1.216869c-1.86926,0.397099 3.09448,0.799789 0.26346,2.032261c0.15492,-0.393272 3.52716,-0.185921 0.8774,0.779999c-2.92141,0.04253 -0.69793,0.119492 -0.3752,1.127541c2.92676,-0.314522 0.14475,0.804123 -1.375,0.96875c-0.38889,0.382156 2.09866,0.562263 3.52032,0.834908c0.88264,0.327362 -3.11624,1.761879 -2.78713,2.074623c1.63879,-0.182129 4.15216,-0.746094 1.58361,0.908707c-2.88541,2.064354 2.13545,-0.583946 1.35529,0.475471c-1.34412,1.570229 -2.28218,2.79689 0.16561,1.158913c2.05021,-1.239708 0.6955,0.040039 0.26944,1.290428c-1.65061,2.568512 0.7841,0.066757 1.83036,-0.7118c1.35383,1.067238 -1.54909,1.389687 -1.46875,1.65625c2.67333,-1.016006 0.474,3.147774 1.6974,1.393059c1.36965,-2.21209 2.269,0.312798 -0.05524,0.701088c-2.58023,1.105652 1.93555,0.087357 1.63301,0.511765c1.85175,-0.919838 -3.30905,2.599632 -1.10873,1.652206c2.71002,-1.283211 1.45733,0.186935 0.18632,1.669792c-0.37009,0.825233 3.80671,-2.561401 2.64782,-0.786003c-0.76378,1.448174 -2.26581,3.804115 -0.03827,1.57402c1.69961,-1.761497 2.24719,-1.671844 1.35225,0.735756c-0.84667,2.548294 -0.20773,1.909805 0.9766,0.087807c1.36174,-2.522713 0.31953,1.721802 0.55259,1.52301c-0.5227,2.294609 0.88579,-0.946861 2.43758,0.88092c-0.55064,0.679367 -2.61674,0.787102 -2.75008,1.21283c0.92035,0.396133 4.90779,0.219467 3.46628,1.056679c-1.07187,0.704323 -4.26518,2.102554 -1.22357,1.461388c2.96993,-0.768478 0.18888,0.97422 -0.77298,1.922585c1.4267,-0.422913 3.73456,-1.40667 1.55925,0.641281c-2.082581,2.177429 1.09192,-0.074753 2.12746,-0.524643c0.48429,0.079903 -2.51561,4.133789 -1.01188,2.838821c0.928821,-0.522942 3.451811,-3.607521 2.41908,-0.978508c-0.19117,1.140511 -1.38972,4.45166 0.09612,1.977875c1.369211,-2.432007 1.48929,-1.405609 1.175831,0.821083c-0.31987,2.439873 0.946539,-1.407158 1.39868,-2.071999c0.83168,-2.536888 0.774719,1.613625 1.144051,2.556091c0.25696,2.050049 0.604719,-2.071693 0.902929,-2.825653c0.46426,0.922508 1.44618,4.943321 1.277411,2.076958c-0.051651,-2.551849 0.247229,-0.882927 1.12742,0.189095c-0.817411,2.16433 2.80868,-0.726295 2.32976,0.465157c-1.3433,1.571709 -2.28153,2.798088 0.157969,1.145004c2.436001,-1.807304 0.231581,1.138306 -0.243488,2.31263c-0.055561,0.56604 2.22781,-1.762016 3.100929,-2.345093c-0.27651,1.343262 -0.98737,3.641937 -0.96394,4.322083c0.631859,-0.499741 2.408949,-4.202393 2.03204,-1.822449c-0.156981,1.769279 -0.3057,3.624527 0.656561,0.938599c0.748789,-1.8965 1.437359,-3.344589 1.540628,-0.435181c0.573032,2.65448 -0.227329,2.024734 1.698112,1.191986c1.667477,0.851555 -1.954931,2.751503 1.247879,1.396835c2.554989,-1.264626 -2.00135,2.713638 -0.620953,2.05687c1.43692,-0.784096 3.69067,-2.401695 1.885242,0.122795c-1.672661,2.572701 -0.110661,1.158211 1.306248,-0.077438c1.932152,-2.148613 0.345753,1.394417 0.275642,2.48468c-0.724361,2.317947 1.226379,-1.1791 1.85791,-1.813042c0.298199,0.184914 -0.499809,4.170158 0.08942,3.089195c0.592598,-0.741013 1.609489,-4.661186 1.87896,-2.98098c0.287251,0.83522 0.521229,5.157043 0.857788,2.764633c0.285961,-1.790039 0.565472,-3.658997 1.227211,-0.863586c0.038891,0.756248 0.650398,2.101563 0.85815,0.065422c2.801701,-0.201141 -1.968609,2.781906 0.627468,1.591339c2.804943,-1.320969 0.709282,0.725601 -0.23431,1.980507c0.546341,0.043892 4.037292,-2.813126 2.66235,-0.75705c-1.012398,1.774162 -1.809669,3.280632 0.309292,1.158119c1.880829,-2.076241 1.731499,-0.873421 1.060589,1.17186c-0.948399,2.758881 0.194851,1.055092 1.20715,-0.376999c1.125652,-1.828102 0.199921,1.947479 0.353062,2.791801c0.539619,-0.86454 1.309719,-2.768944 1.9375,-4.03125c0.280472,1.203934 0.541649,3.920448 0.833401,4.23925c0.071548,-1.554237 0.92009,-4.16655 1.49218,-1.259758c0.192051,1.786751 0.30061,-0.167305 1.651398,0.063141c-0.315098,1.663506 -1.901348,2.558937 0.727253,1.019569c2.397228,-1.779472 0.117268,1.233925 -0.306152,2.344864c0.104012,0.364433 2.266003,-1.819176 3.164421,-2.438316c-0.301701,1.392082 -0.856041,3.319679 -1,4.375c0.761139,-0.73439 2.5634,-4.33754 2.045589,-1.547798c-0.384548,2.779739 0.11261,2.100906 0.99205,-0.0774c0.884892,-2.888344 1.079929,-0.67382 1.334351,1.101479c0.255009,3.132957 0.59544,-0.141891 0.910061,-1.480293c0.250877,-1.768799 1.261482,3.760933 1.390472,2.284935c0.024818,-2.11657 0.003799,-2.769554 0.77607,-1.302475c1.201637,2.94799 -0.097885,-1.941826 2.055969,-0.014046c-1.414719,1.33152 -2.280365,2.003456 0.270454,0.977615c2.0065,-0.91433 -2.714684,3.241364 -0.637955,1.987076c1.713867,-1.051773 3.279594,-1.953491 1.551987,0.480606c-1.735367,2.642853 0.403252,0.52211 1.607948,-0.450256c1.765816,-1.867874 0.017441,1.911079 0.0187,2.878601c-0.499176,1.784706 1.408173,-1.616364 1.996803,-2.181793c0.101662,0.737007 -0.622208,4.711357 0.116562,2.994904c0.593536,-0.744751 1.63208,-4.838402 1.812958,-2.477753c0.284683,0.975952 0.523354,5.079033 0.864594,2.21077c0.253036,-2.463661 0.679649,-2.658348 1.31163,-0.168694c0.88945,3.198303 0.028229,-2.652367 0.758163,-1.351128c1.236076,2.536194 1.237343,1.6082 0.764771,-0.649101c-0.561516,-2.18187 2.039009,2.206863 2.129303,1.626801c-0.084618,-0.975639 -2.071777,-4.47168 -0.696037,-3.512672c1.345268,0.437141 2.551064,2.696815 3.417297,1.846855c1.713593,-1.066414 3.238586,-1.940384 1.528557,0.486778c-1.726761,2.639381 0.467583,0.445427 1.634872,-0.482513c1.728607,-1.819374 -0.014961,1.977905 0.010559,2.913475c-0.486137,1.77153 1.411705,-1.600075 2.003021,-2.156471c0.105103,0.70446 -0.625603,4.6894 0.116226,2.932251c0.585503,-0.718018 1.604965,-4.808853 1.790253,-2.416542c0.293793,0.96772 0.551353,5.055634 0.889771,2.181389c0.254868,-2.47686 0.681763,-2.599846 1.297844,-0.133636c0.867989,3.136322 0.013168,-2.778938 0.737793,-1.479912c1.22657,2.50737 1.293114,1.751793 0.796791,-0.587051c-0.561516,-2.18187 2.039009,2.206863 2.129303,1.626801c-0.085823,-0.973915 -2.069138,-4.475479 -0.698463,-3.509201c0.963432,0.54982 3.709244,2.953766 2.649963,1.37793c-1.082344,-1.528 -2.263298,-3.141106 0.253197,-1.636169c2.689644,1.484329 -0.172707,-0.956177 -0.94281,-1.917618c-1.384911,-1.330597 2.467155,0.072327 3.366852,-0.065781c0.330498,-0.328011 -4.469398,-2.169861 -1.856209,-1.998482c2.441872,0.018616 2.968132,-0.252296 0.354477,-0.997795c-2.945305,-0.596375 2.021065,-0.923882 1.696251,-1.29361c-2.007217,-0.211716 -3.72197,-0.466843 -0.920265,-1.392281c2.321869,-0.922562 -1.927071,-0.212181 -2.756836,-0.351509c0.03508,-0.495544 3.510925,-2.679192 2.492714,-2.529716c1.037971,-1.064995 -2.4869,0.834274 -2.066383,-0.007004c1.172874,-1.373962 1.655861,-1.726173 1.325783,-2.052063c-1.371307,0.794991 -3.327087,-1.972427 -0.641418,-1.389671c2.940239,0.102402 -0.970139,-0.798012 -1.888588,-1.260452c0.053757,-0.421944 4.765953,-0.922127 1.655304,-1.126617c-3.078178,-0.048256 -0.252701,-0.980942 1.093452,-1.692009c-0.921989,-0.212677 -4.971413,0.816902 -3.009506,-0.541298c1.417084,-1.150513 2.389328,-2.024483 1.778877,-2.065514c0.12365,-0.476051 -3.955978,1.67485 -1.401588,-0.610931c1.54512,-1.704666 0.372681,-1.154938 -1.188812,-0.204803c-2.425377,1.898964 -0.779823,-0.67334 -0.220154,-2.052963c1.222961,-2.325417 -1.957619,1.801353 -2.082855,1.248528c0.122177,-1.002831 1.555168,-4.833389 0.062538,-2.352715c-1.103142,1.69371 -2.111526,3.12571 -1.544876,0.207237c0.470535,-3.033302 -0.341347,-1.125481 -1.10907,0.612282c-0.675873,1.840866 -0.332321,-3.84066 -0.799141,-2.320389c-0.445686,0.94783 -0.78363,4.924873 -1.362129,2.138138c-0.638206,-2.278305 -0.887344,-1.973648 -1.253883,-2.354225c0.081673,2.069611 0.00544,3.511116 -1.102097,0.850067c-0.338112,-0.468422 -0.394142,0.072098 -0.586121,0.096176c1.451118,2.151733 -2.822472,2.345352 -0.562256,0.474167c1.11573,-1.29023 -0.743057,-0.078079 -1.587677,0.344994c-2.417488,1.927277 -0.875427,-0.571167 -0.277367,-2.014503c1.17498,-2.206253 -1.446281,1.027565 -2.128883,1.483253c0.057716,-0.85569 1.578323,-4.903122 0.28949,-2.820923c-0.81678,0.995224 -2.358879,4.024376 -1.745857,1.010223c0.303711,-2.41465 0.143219,-3.035324 -0.84391,-0.461357c-0.867966,2.730865 -0.535324,-2.460167 -0.92524,-2.127464c-0.453262,0.804192 -0.773926,5.011162 -1.349403,2.67852c-0.60421,-2.014099 -0.95047,-2.458519 -1.331329,-2.872749c-0.026382,1.649399 0.183983,4.231873 -0.98381,1.382591c-0.561951,-1.031364 -0.516403,-0.193298 -0.719093,-0.169075c0.689392,1.855667 -3.215652,1.644005 -0.665993,-0.014297c1.273125,-1.458557 -0.633636,-0.286331 -1.977707,0.483528c-2.128143,1.574821 0.246887,-1.811363 0.449783,-2.804565c0.506721,-1.385483 -2.946426,3.345116 -2.161247,1.191261c0.405884,-1.60273 1.206566,-4.054886 -0.378029,-1.374771c-1.360435,2.404358 -1.544266,1.55883 -1.196877,-0.754005c0.467476,-3.0215 -0.786301,0.588966 -1.371658,1.624001c-0.327759,-0.19429 -0.20433,-4.902817 -0.709976,-2.319c-0.4226,1.593056 -0.810875,4.159126 -1.395775,1.152107c-0.596218,-2.16156 -0.821568,-1.678017 -1.088306,-1.584816c0.18578,2.483826 -0.202061,2.685684 -1.227161,0.352592c-0.26968,0.173737 -0.7001,-0.180069 -0.176239,2.168167c1.416187,2.931099 -1.916622,0.312614 -1.01598,-0.352806c0.916828,-0.436028 -1.767242,-0.587364 -2.023041,-0.237244c-2.586899,0.416229 1.029968,-1.5616 1.631828,-2.375931c-0.211529,-0.232895 -0.025669,-0.752434 -2.232548,0.162292c-0.753792,0.021057 2.521999,-2.961769 1.072277,-2.212669c-1.029518,0.352859 -4.10347,2.949097 -2.635117,0.560997c0.883358,-1.822227 1.643787,-3.470047 -0.361691,-1.193436c-1.849922,2.28083 -0.30862,-1.283844 -0.196121,-2.385658c-0.166611,-0.438156 -2.022228,3.064606 -2.369701,2.841667c-0.083519,-0.907982 0.701462,-5.168922 -0.189468,-2.959763c-0.833359,2.334389 -1.29166,2.410683 -1.31139,-0.153511c-0.11409,-2.212326 -0.753841,1.777901 -1.078571,2.614487c0.390881,0.167786 -1.682629,-1.740173 -0.193619,-2.373917c-1.265099,-0.537964 -1.114391,-0.439323 -1.519402,-1.01722c0.472813,1.707954 -2.847717,0.776566 -0.270729,-0.5784c1.44025,-1.125664 0.687222,-1.067696 0.132301,-1.076584c-2.720779,1.336594 -1.203819,-0.291603 -0.048092,-1.667076c-0.059559,-0.377251 -1.909698,0.830002 -3.180477,1.509254c-0.826691,0.197121 1.51952,-3.346642 1.137589,-3.472504c-0.995571,0.829269 -3.08506,3.557549 -1.958931,0.703659c0.912281,-2.71373 0.160721,-1.817711 -1.025688,0.021744c-1.454533,2.687958 -0.659691,-0.884338 -0.685932,-2.171471c0.18388,-2.119583 -1.414417,3.480583 -1.53986,1.951736c-0.155228,-2.024567 -0.32946,-3.80426 -0.87291,-0.82428c-0.94231,2.475861 -1.3974,-1.308464 -0.209568,-0.854767c-1.8797,-0.255531 -1.414631,-0.500771 -1.907341,-0.950394c0.24194,1.442451 -2.445869,1.025894 0.119789,-0.42569c2.1185,-1.476463 0.002762,-0.648857 0.831921,-1.426788c-2.235699,0.985229 -2.76162,0.778763 -0.91452,-1.081665c0.977699,-1.245033 -1.176922,0.197159 -2.385448,0.833199c-1.800133,1.195831 0.627029,-2.215813 0.787979,-3.157433c-0.105221,-0.506218 -3.172112,3.731018 -2.200352,1.19603c0.57999,-1.995186 0.911751,-3.448799 -0.58112,-0.921402c-1.356579,2.509842 -1.333649,1.148323 -1.059639,-0.91777c0.491341,-3.086346 -0.654591,0.161057 -1.253052,1.290596c-0.293449,0.418465 -0.318699,-2.338951 -0.481628,-2.745453c0.177139,0.12458 -2.104361,0.166809 -2.75341,-0.23555c1.46925,-0.72979 4.02813,-1.732971 0.92083,-1.314499c-2.942921,0.55864 -1.17415,-0.704422 0.243761,-1.831833c1.314798,-0.984928 0.092779,-0.660587 0.142778,-0.937279c-2.525188,1.187019 -2.024349,0.264912 -0.496479,-1.373028c0.636909,-0.975201 -1.874941,0.76561 -2.98377,1.301098c-0.827419,0.19635 1.521,-3.3451 1.136459,-3.47369c-1.004509,0.823589 -3.11587,3.555069 -1.98905,0.704849c0.912281,-2.713749 0.160721,-1.817719 -1.02569,0.021732c-1.36129,2.35075 -0.69434,-0.091702 -0.730089,-1.597351c0.563669,0.16502 0.056641,-2.098839 -0.593651,-0.46587c-0.91363,-0.982719 -2.858679,-0.490269 -1.220669,-1.114281c2.8342,-0.464848 1.599319,-0.738029 -0.52951,-0.969109c-1.134069,-0.280231 4.401581,-1.86385 1.046209,-1.43877c-2.403749,0.35017 -2.855968,-0.05418 -0.692719,-1.469761c1.757648,-1.28495 0.630819,-0.99025 0.547709,-1.28207c-2.525188,1.187019 -2.024349,0.264912 -0.496479,-1.373028c0.518879,-0.862453 -1.57308,0.539059 -2.78297,1.171227c-1.285429,0.635281 0.935631,-2.551289 1.12833,-3.527088c-0.86647,0.585651 -3.262791,3.808319 -2.24518,1.146351c0.75939,-2.38662 0.55521,-2.670902 -0.79878,-0.446529c-1.426989,2.706348 -1.01413,0.253479 -0.886469,-1.399651c0.401079,-2.75737 -0.881761,1.04361 -1.413321,1.918579c-0.125,-1.135422 -0.25,-2.270828 -0.375,-3.40625zm16.59375,21.8125c0.428249,2.772591 -3.446211,0.310043 -0.5308,0.146431c0.176929,-0.048813 0.35387,-0.097618 0.5308,-0.146431zm-20.28125,14.3125c2.33082,0.921783 -0.6902,2.931236 -0.65314,1.422897c0.21772,-0.474289 0.435431,-0.948601 0.65314,-1.422897zm48.5625,9.21875c1.46159,1.57486 -2.638199,0.523132 -0.199772,0.097183l0.199772,-0.097183zm-35.34375,3c0.9084,2.137604 -2.860649,0.95594 -0.425171,0.04361l0.26453,-0.02713l0.160641,-0.016479zm8.4375,4.59375c1.68718,1.466476 -1.258801,3.35508 -0.147621,0.718407c0.04921,-0.239464 0.098412,-0.478935 0.147621,-0.718407zm63.8125,10.40625c3.089363,-0.538719 0.05777,1.99176 -0.236656,0.537849c0.078888,-0.179283 0.157768,-0.358566 0.236656,-0.537849zm-15.46875,10.28125c2.809067,0.214249 0.0103,2.186798 2.4375,1.03125c1.350372,0.628563 -1.206131,3.166321 -1.28801,0.698318c-0.377968,-0.579941 -0.767303,-1.152405 -1.14949,-1.729568z"/>
   <path fill="#ffffff" fill-rule="nonzero" stroke-width="10" stroke-miterlimit="4" stroke-dashoffset="0" id="path2310" d="m17.03203,46.290581c-0.45352,0.784431 -0.775379,4.682259 -1.35117,2.574959c-0.607901,-1.90646 -0.98971,-2.347229 -1.27972,-2.29641c0.15744,2.259251 -0.170031,2.7066 -1.21416,0.476021c-0.21881,0.274281 -0.6059,-0.04208 -0.086,2.095039c0.85176,3.028351 -1.239389,-0.785679 -1.102699,-0.032108c-1.817141,-1.44202 -0.66493,-0.48592 -0.59125,1.182499c-1.43633,-0.050949 -0.59702,-2.647861 -1.52226,-0.78735c-0.58739,-1.287231 0.49142,3.31358 -0.99712,1.137348c-0.55793,-1.682419 -1.01222,-2.406719 -1.123281,-1.35812c0.27307,2.619972 -0.50847,1.299202 -1.35734,-0.273129c0.03262,0.899132 -0.49526,0.16634 0.06895,2.349609c0.86847,2.65184 -1.16003,-0.11467 -2.08508,-0.81736c-0.89464,-0.655209 2.1137,3.74741 0.09007,1.96394c-2.08063,-1.59866 -1.70061,-0.80162 -0.39989,0.89183c1.33126,1.655571 -1.99696,-0.460789 -2.88951,-0.605419c0.37698,0.66692 3.38903,2.756298 1.76982,2.349201c-1.84019,-0.448193 -3.42714,-0.789352 -0.98015,0.57428c2.45447,1.178078 0.71193,1.227829 -1.07136,1.241718c-2.52217,-0.085598 0.61163,0.669701 1.54842,1.065342c-0.34378,0.400677 -3.29086,0.743927 -2.52518,1.053368c0.83819,0.205631 4.70935,0.415581 2.83799,0.779121c-1.52327,-0.9879 0.34161,1.189999 -2.20191,1.423649c0.07572,-0.051949 2.81095,0.918652 0.46283,1.730721c1.45208,-1.121429 3.19851,0.227379 0.82277,0.559181c-2.81394,-0.000381 -0.22444,0.167599 -0.13527,1.003319c2.76873,-0.268913 0.03275,0.698936 -1.34375,0.84375c-0.11853,0.320229 1.45844,0.493759 3.0579,0.708336c1.50878,0.210159 -1.92665,1.314026 -2.58915,1.916664c1.21613,-0.026917 4.37317,-0.855629 1.94232,0.623993c-2.33109,1.546394 0.21944,0.523796 1.46393,0.188507c-0.71796,0.956039 -3.08657,3.225067 -0.64669,1.669243c1.92824,-1.0495 1.51667,-0.762764 0.93664,0.507401c-1.62158,2.339928 -0.18587,1.13488 1.19719,-0.009132c2.324339,-0.227371 -1.37946,1.391281 -0.66528,1.171036c0.30092,-0.544479 1.38363,1.591354 0.92291,1.71553c0.5952,-2.03466 3.05015,-0.880997 0.66891,0.005966c-2.70616,1.25753 0.30136,0.234238 0.99257,0.752457c1.48553,-0.91481 -0.93444,1.03508 -1.65625,1.59375c1.47018,-0.443573 3.65917,-1.357147 1.54253,0.544609c-1.98006,1.959969 1.05459,-0.068993 2.00942,-0.443565c0.46394,0.053314 -2.41345,3.737007 -0.93618,2.504257c0.87435,-0.452843 3.274739,-3.245499 2.267139,-0.81282c-0.31703,1.342438 -1.22254,3.87043 0.28219,1.507767c1.07732,-2.41951 1.56403,-0.303505 0.65195,0.699196c0.41011,1.964844 0.23693,-0.34124 1.88755,0.64167c2.761649,0.578857 -2.6014,0.894669 -1.2046,1.171387c-1.30542,0.348022 2.42116,0.467613 3.25,0.71875c-0.60379,0.500862 -4.21031,1.931129 -2.57409,1.738663c2.211921,-0.433655 2.744639,-0.173172 0.66153,1.168625c-2.08916,1.49572 3.23956,-1.219627 1.52525,0.314011c-1.62917,1.662819 -1.57173,1.993134 0.49539,0.735672c2.141781,-1.432602 -0.28738,1.52803 -0.61548,2.469276c0.79739,-0.4272 2.603231,-2.302254 3.07148,-2.186493c-0.08186,0.865417 -1.340059,4.110847 -0.571548,3.245743c0.939939,-1.211693 2.202839,-3.263184 1.605309,-0.476913c-0.46282,2.764946 0.504951,0.351463 1.110971,-0.852592c0.853239,-2.705017 0.895689,0.390121 1.20509,1.575546c0.256409,2.524185 0.61751,-1.280449 0.92985,-2.137787c0.501961,1.09684 1.376221,4.406342 1.207399,1.516701c-0.03138,-2.15377 0.481941,0.02639 1.355061,0.901497c-1.280109,1.198013 3.446569,-1.33754 1.80023,0.178101c-1.629169,1.662819 -1.57173,1.993134 0.49539,0.735672c2.141781,-1.432602 -0.28738,1.52803 -0.61548,2.469276c0.79739,-0.4272 2.603231,-2.302254 3.07148,-2.186493c-0.08186,0.865417 -1.340059,4.110847 -0.571548,3.245743c0.939938,-1.211693 2.202839,-3.263184 1.605309,-0.476913c-0.462818,2.764946 0.504951,0.351463 1.110968,-0.852592c0.853241,-2.705017 0.895691,0.390121 1.20509,1.575546c-0.299179,2.47303 1.257881,-1.651154 2.040001,0.71109c-2.031738,1.65519 0.063801,0.642624 1.497799,0.281197c-0.465748,0.745155 -3.088219,3.188934 -0.849987,1.776573c2.12801,-1.416245 1.98333,-0.657738 0.740688,1.151413c-1.300838,1.953072 1.53228,-0.889702 2.22913,-1.254173c0.91095,-0.50808 -0.52108,2.58387 -0.53878,3.50267c0.35144,-0.001915 2.064602,-3.132217 2.058041,-2.063004c-0.04866,1.21904 -0.52998,4.124939 0.474739,1.489227c0.733482,-1.724861 1.429932,-3.175919 1.560982,-0.446274c0.279499,2.60997 0.597321,1.775383 0.929268,-0.328896c0.42271,-1.857292 0.60564,1.276749 1.120251,1.546196c-0.208569,1.13681 1.17263,-2.390175 1.31963,-0.003906c-2.666039,1.772881 1.046112,0.028381 1.282982,0.345963c-0.992962,1.173569 -2.673542,2.897003 -0.239342,1.329918c2.315742,-1.635574 1.001522,0.219627 0.214771,1.567581c-0.991798,1.603706 1.81469,-1.197556 2.515388,-1.556664c0.354412,0.261711 -0.739029,2.931435 -0.675709,3.532051c0.374989,0.122017 2.415569,-3.846901 1.963501,-1.481621c-0.257221,1.996643 -0.200401,2.957924 0.728027,0.583664c0.829811,-2.413551 1.220791,-1.655052 1.420582,0.485474c0.38887,3.039841 0.334721,-0.292389 1.103279,-1.075233c0.682491,0.600754 0.854099,3.059227 1.12104,1.65226c2.55851,-1.801216 -0.586151,2.340263 0.66835,1.185699c1.623001,-0.934006 3.090061,-1.718124 1.432961,0.500465c-1.663139,2.392204 0.572289,0.235451 1.58543,-0.49511c1.69112,-1.696335 -0.005352,1.776649 -0.020111,2.683434c-0.377239,1.385658 1.413269,-1.582611 1.965691,-2.070282c0.080311,0.760857 -0.655479,4.552582 0.22076,2.426018c0.640598,-1.047577 1.573643,-4.198235 1.675709,-1.373116c0.274452,1.890221 0.554779,3.385086 0.898148,0.638191c0.22438,-2.789597 0.943451,0.602768 1.472107,1.615578c0.024559,-1.260315 0.073845,-3.318542 0.541916,-1.800034c0.947899,1.653839 0.576523,1.762024 2.632767,0.967163c1.567505,-0.614182 -2.712685,2.98143 -0.781799,1.873688c1.623917,-0.948151 3.049332,-1.704727 1.40313,0.50322c-1.663139,2.392204 0.572296,0.235451 1.585434,-0.49511c1.687569,-1.69725 0.011658,1.781013 0.005493,2.689995c-0.365265,1.374359 1.394165,-1.565392 1.940086,-2.045593c0.07856,0.756752 -0.654327,4.523148 0.220757,2.394768c0.641937,-1.047829 1.568077,-4.197189 1.686623,-1.375198c0.287178,1.885948 0.579002,3.389542 0.92231,0.641098c0.230728,-2.768509 0.934929,0.671463 1.451561,1.651833c-0.047333,-1.865639 -0.050209,-3.571297 1.12188,-1.047279c1.025528,1.68 -0.942467,-3.774063 0.349922,-1.969658c1.247475,1.479286 2.193405,2.464699 1.034447,0.002739c-1.234161,-2.305794 -0.178955,-1.74308 1.382019,-0.546654c1.29673,1.486732 1.947189,0.582664 3.56675,-0.207016c1.550873,-0.938072 -1.390007,2.626205 -0.885178,2.584221c0.783333,-0.313293 3.233688,-3.182556 2.778664,-1.597115c-0.097183,0.896751 -1.465454,4.364441 -0.144691,2.376762c1.219452,-1.938522 1.696472,-1.946449 1.265732,0.40609c-0.358521,2.422043 0.896263,-1.108414 1.365295,-1.78933c0.776665,-2.157173 0.706314,1.744911 1.075134,2.505287c0.319695,1.876945 0.543968,-3.486237 1.017944,-2.162666c0.617981,1.775368 1.207115,3.385056 1.023811,0.559975c-0.172966,-2.080566 2.057915,3.489365 1.223984,0.257736c-0.820953,-2.6884 0.421921,-1.140785 1.543816,0.158554c0.762955,0.682251 -0.798416,-2.473976 -0.960869,-3.319984c0.914032,0.488464 2.905083,2.071159 3.28804,2.053711c0.476921,-0.0625 -2.678566,-3.172043 -1.011879,-2.369957c1.450447,0.628433 3.320908,1.542732 1.2164,-0.220375c-1.992317,-1.55294 -1.260887,-1.76265 0.890518,-1.272095c2.837822,0.645157 -0.005096,-0.634567 -1.049507,-1.304878c-1.09156,-0.646179 3.143738,-0.139801 2.799255,-0.523438c-1.115936,-0.496078 -4.373795,-1.08461 -1.547188,-1.410538c2.881821,-0.445129 -0.189629,-0.586006 -1.436531,-0.820114c0.798271,-0.475327 4.098801,-1.54216 1.481133,-1.20797c-2.213943,0.299728 -2.79789,-0.004951 -0.683495,-1.310211c1.699272,-1.165939 0.560341,-0.874321 0.50988,-1.14698c-2.219963,1.16671 -2.108635,0.010193 -0.407906,-0.956337c0.272186,-0.856964 -0.178658,-0.018639 -1.5662,-0.996788c-2.035042,-1.284019 3.065773,-0.600456 1.728813,-1.07502c-1.433685,-0.508133 -3.977837,-1.065292 -1.102646,-1.383133c3.069702,-0.473289 -1.415619,-0.46727 -1.361809,-0.871857c1.730911,-0.734695 3.29039,-1.42836 0.485474,-1.077484c-2.815971,0.530869 -0.411606,-0.890099 0.65876,-1.812286c1.207527,-0.845894 -0.635963,-0.098915 0.14537,-0.744637c-2.094292,0.873642 -2.605705,0.70314 -0.81707,-0.984573c0.886909,-1.046051 -1.182503,0.233925 -2.26297,0.76799c-1.706474,1.071487 0.612785,-2.052483 0.776924,-2.930466c-0.485794,0.055679 -3.035484,3.328156 -2.176826,1.147881c0.714691,-2.151009 0.657242,-2.726707 -0.730721,-0.587906c-1.424171,2.508835 -0.827789,-0.280273 -0.766869,-1.665375c0.258125,-2.060417 -1.194649,2.4245 -1.438965,1.870354c-0.168961,-1.522072 -0.257027,-4.013489 -0.79184,-1.151764c-0.368065,2.758354 -0.935394,0.97113 -1.49791,-0.70578c-0.474937,-1.033875 -0.763771,-0.951744 -0.697945,1.050476c0.050766,1.657814 -1.640137,-2.710716 -1.33625,-0.87455c-0.437737,-1.108971 0.434669,3.112297 -1.554703,1.333687c1.403877,-1.468323 1.413513,-1.868942 -0.307564,-0.829041c-1.636063,1.04837 -2.380806,1.212921 -1.08976,-0.769249c1.463837,-2.455414 0.034935,-1.045273 -1.221519,0.134422c-1.110596,1.100266 1.062164,-3.56076 0.161926,-2.51825c-0.728546,0.677658 -2.45829,4.01609 -1.9608,1.435539c0.217018,-1.924934 0.276047,-3.272926 -0.725037,-0.749825c-0.888939,2.725929 -0.595825,-1.896774 -0.957016,-1.684654c-0.449043,0.902519 -0.778084,4.618614 -1.374023,2.076118c-0.594498,-1.824905 -0.99942,-2.330879 -1.19397,-1.787964c0.229874,2.552734 -0.358765,2.036644 -1.33242,0.077049c-0.055275,0.965645 -0.283348,-0.263374 -0.392174,1.439629c-2.693062,1.33152 -0.157837,-1.358467 -0.169655,-1.519867c-0.232567,-0.196327 -2.216736,1.071114 -3.281738,1.571091c0.219177,-0.792633 2.284653,-4.050583 1.103577,-2.973511c-1.344948,1.381104 -2.351189,2.20607 -1.356308,-0.254402c0.956848,-2.655655 -0.879608,0.418274 -1.607887,1.219116c-0.833145,1.010239 -0.004883,-2.39476 -0.139381,-3.241203c-0.640129,1.041527 -1.661758,4.216164 -1.606461,1.369209c-0.053841,-2.913986 -0.598732,0.13916 -0.990273,1.328697c-0.36895,1.62252 -1.150391,-2.855499 -1.476509,-2.482025c-0.570068,-1.169914 -0.079597,2.385406 -0.651794,1.923447c-0.957054,-1.852905 -1.156624,-1.52916 -1.318634,-1.151329c-0.021488,0.91124 1.162491,4.057724 -0.248058,2.354134c-1.70937,-1.358734 1.182812,-1.257545 -1.539433,-1.454544c-0.156788,0.159714 -3.206268,0.617043 -0.604908,-0.85289c1.537178,-1.060875 1.301258,-1.210289 1.101849,-1.377228c0.215641,-0.463974 -3.768158,1.505966 -1.294979,-0.56675c1.492691,-1.522331 0.28186,-0.968735 -1.123451,-0.17186c-2.308918,1.699341 -0.768639,-0.612808 -0.197479,-1.914978c1.063652,-1.954086 -1.93082,1.741928 -1.987709,1.162933c0.234959,-1.176849 1.416149,-4.28244 -0.126251,-1.836418c-1.206409,1.927208 -1.719028,2.027504 -1.28532,-0.364082c0.462391,-2.84726 -0.755131,0.37545 -1.36356,1.397362c-0.212681,-0.876915 -0.192139,-4.451157 -0.687519,-1.861435c-0.52404,1.759514 -0.60265,2.538399 -0.97451,1.466507c-0.544861,-2.043243 0.389999,-0.924454 -0.9375,-2.5c-0.179729,1.036293 -0.249569,-0.555367 -0.653481,0.976723c-2.647278,0.028801 1.251732,-2.115562 0.97752,-2.285942c-0.2407,-0.218559 -0.72324,-0.234833 -2.574039,0.434219c0.819248,-1.002289 2.502449,-2.659271 1.185928,-1.990768c-1.135948,0.467102 -3.7547,2.462029 -2.166698,0.122452c1.14185,-2.010956 1.05357,-2.384094 -0.644871,-0.61348c-1.574429,1.759033 0.066811,-1.726791 0.094391,-2.580704c-0.677521,0.534531 -2.425789,3.888603 -2.293549,2.290863c0.093769,-1.515366 0.494427,-4.139549 -0.587952,-1.405136c-0.92765,2.700073 -0.79459,-0.420204 -1.0121,-1.616814c-0.263588,0.35611 -0.75304,4.006569 -1.640141,1.76413c2.115723,-1.0858 -0.593658,-0.599449 -0.664509,-1.504662c-0.286232,0.290276 -0.159721,-0.444984 -0.611481,0.761108c-2.064518,-0.049232 1.24757,-1.674362 1.778481,-2.35199c-1.089939,0.270767 -0.18066,-0.535927 -2.408508,0.375313c-0.690712,-0.01973 2.078068,-2.365875 1.189758,-2.094063c-0.891399,0.223373 -3.93515,2.689194 -2.823662,0.825851c0.659111,-1.380058 1.918301,-3.562027 -0.058777,-1.419334c-1.847862,2.19278 -0.645611,-0.589287 -0.383972,-1.837158c0.033382,-0.807083 -1.919449,2.711021 -2.21714,2.402573c-0.094467,-0.787445 0.67448,-4.727776 -0.21283,-2.620132c-0.869858,1.653275 -0.958729,2.34211 -1.165348,0.535477c0.245968,-2.151176 -0.394272,-0.852478 -2.25099,-1.403206c-1.53705,-0.152565 3.945528,-1.601139 1.155088,-1.29401c-1.866877,0.17104 -3.478998,0.247608 -1.123667,-1.146988c1.810598,-1.244041 0.873798,-1.071152 0.702839,-1.301762c-2.369141,1.054939 -1.91011,0.244289 -0.420212,-1.246361c0.399532,-0.697598 -1.480379,0.454441 -2.642809,1.0396c-1.22864,0.59729 0.855541,-2.257889 1.035231,-3.1283c-0.831141,0.516171 -3.149441,3.440811 -2.15007,0.992439c0.87492,-2.46244 0.271431,-1.91758 -0.947041,-0.121799c-1.27314,2.074219 -0.615318,-0.162128 -0.652889,-1.46439c0.609791,-0.273151 0.055189,-1.30175 -0.80966,-0.478889c-0.72847,-0.920212 -2.68256,-0.314411 -0.70994,-0.980301c2.83239,-0.43203 0.73494,-0.644001 -0.91741,-0.875839c-0.524561,-0.272221 4.08313,-1.51712 1.47937,-1.225201c-1.859291,0.164219 -3.525841,0.257 -1.154911,-1.146698c1.673311,-1.175072 1.17189,-1.288982 0.49646,-1.23291c-2.552519,1.150658 -1.31678,-0.175491 -0.08185,-1.501102c-0.066669,-0.303238 -1.82893,0.749573 -2.99387,1.340351c-0.812979,0.22567 1.463171,-3.01276 1.07033,-3.077808c-0.961079,0.739437 -3.001709,3.245728 -1.90572,0.618427c0.96804,-2.670139 -0.08897,-1.200809 -1.15444,0.28582c-1.24791,2.076752 -0.294249,-1.700878 -0.42786,-2.587269c-0.267078,-0.39452 -1.617929,4.202499 -1.56337,1.659389c-0.077789,-0.693069 -0.15559,-1.38615 -0.233379,-2.07922zm-6.3125,4.875c0.32934,0.304089 -0.13572,0.593201 0,0zm14.71875,6.4375c-0.570169,2.809029 -2.07835,-0.55761 0,0zm-1.625,0.09375c-0.02656,1.021259 -1.671379,-0.506889 0,0zm-0.84375,1.375c0.83119,-0.240002 0.13011,1.629021 0,0zm-19.59375,2.03125c-1.46946,1.042561 -3.09528,-0.118549 0,0zm0.6875,2.25c0.34675,0.104988 -0.34675,0.104988 0,0zm28.812498,2.375c0.30434,2.508339 -3.246048,0.228111 -0.520149,0.132401c0.173378,-0.044136 0.34676,-0.088272 0.520149,-0.132401zm-0.53125,1.84375c0.07703,2.135483 -1.30324,-0.290031 0,0zm-2.031248,0.09375c0.137581,-0.085579 0.04808,0.282654 0,0zm-1.125,1.25c0.172991,-0.128792 0.09754,0.310928 0,0zm9.312498,3.78125c0.248199,0.381683 -0.3111,0.098534 0,0zm1.28125,1.09375c0.25774,0.600143 -0.757439,0.084793 0,0zm1.8125,0.78125c0.045639,1.233971 -0.771561,-0.063171 0,0zm-27.656248,3.09375c0.327499,0.708 -0.55035,0.509041 0,0zm-0.40625,0.8125c2.21771,0.87471 -0.74974,2.684387 -0.65055,1.277863c0.21685,-0.425949 0.4337,-0.851906 0.65055,-1.277863zm34.843748,0.46875c0.510311,0.545059 -0.57753,0.919243 0,0zm-0.28125,0.21875c0.283058,0.581444 -0.89539,0.34166 0,0zm-32.937498,0.4375c1.47957,0.561752 -0.472639,0.764801 0,0zm34.562498,0.53125c0.394001,1.286491 -0.995731,0.124947 0,0zm-34.937498,1.125c0.184259,-0.00544 -0.082411,0.143631 0,0zm45.031248,5.4375c1.180981,1.522293 -2.65741,0.311897 0,0zm-33.843748,0.875c2.84618,-0.287086 0.048361,1.643799 0,0zm-1.25,0.28125c1.71315,1.09301 -0.14423,1.946533 0,0zm35.656248,0.125c0.960461,1.075813 -1.038391,-0.160103 0,0zm-1.34375,0.34375c1.101299,0.876228 -1.293499,-0.114708 0,0zm-31.874998,0.9375c-0.533661,0.752731 -0.937349,-0.143883 0,0zm-1.03125,0.09375c0.93786,1.950523 -2.694269,0.87159 -0.387449,0.043053l0.24585,-0.027321l0.1416,-0.015732zm47.062498,0c0.103844,0.262573 -0.603722,0.17485 0,0zm-1.96875,0.21875c0.324097,0.221352 -0.576859,0.286652 0,0zm2.03125,0.1875c1.441902,2.987167 -1.881248,0.624496 0,0zm-1.4375,1.15625c1.252197,1.525543 -1.172577,0.250168 0,0zm13.0625,1.65625c0.052422,0.434837 -0.612427,0.272202 0,0zm-1.90625,0.15625c0.421928,0.408684 -0.749527,0.427872 0,0zm1.96875,0.28125c1.025742,2.160858 -1.335358,0.43425 0,0zm-50.78125,0.46875c1.72789,1.08654 -1.169708,3.136078 -0.177078,0.822159c0.059029,-0.274055 0.11805,-0.548096 0.177078,-0.822159zm1.28125,0.1875c1.042542,0.844872 -0.507931,1.451218 0,0zm1.03125,0.15625c0.654961,-0.174088 -0.09763,0.412903 0,0zm47.125,0.28125c0.543098,0.599503 -0.511063,0.216454 0,0zm-1,0.8125c0.167747,0.134811 -0.309433,0.06369 0,0zm-46.09375,0.4375c-1.368,1.824837 -1.862061,-0.17643 0,0zm9.25,3.78125c1.661819,0.496834 -0.228828,1.790894 0,0zm1.4375,0.21875c0.212059,-0.083473 0.02174,0.101563 0,0zm-2.34375,0.40625c1.007599,0.928719 -0.499432,1.526833 0,0zm2.1875,1.125c-1.029419,1.419243 -1.65258,-0.211617 0,0zm48.21875,0.4375c-0.289581,0.443253 -0.716293,-0.20285 0,0zm-0.25,1.4375c3.162422,-0.553772 -0.526192,1.983963 -0.122498,0.245003l0.110619,-0.221252l0.011879,-0.02375zm-40.9375,2.15625c0.5714,0.678574 -0.531891,1.002243 0,0zm2.90625,0.375c-0.7276,0.969482 -0.990669,-0.152199 0,0zm-1.65625,0.15625c1.271511,0.554298 -0.540951,2.374542 0,0zm1.9375,0.96875c-0.69371,1.32325 -1.1954,0.046661 0,0zm10.125,2.15625c2.846184,-0.287102 0.048363,1.643799 0,0zm-1.25,0.21875c1.697632,1.133423 -0.146873,1.983292 0,0zm16.40625,0.90625c1.625122,-0.094543 1.13726,0.850533 0,0zm-13.96875,0.5625c-0.533661,0.752731 -0.937347,-0.143883 0,0zm-1,0.09375c0.841957,1.941856 -2.700974,0.859177 -0.418457,0.045242l0.245934,-0.026596l0.172523,-0.018646zm12.96875,0c3.120667,-0.219238 1.118767,1.556099 0,0zm2.96875,1c-1.383827,1.739662 -2.784447,-0.289993 0,0zm-3.28125,0.5625c2.65773,0.233383 0.026733,1.94735 2.397003,0.940117c1.244118,0.413803 -1.221703,2.809784 -1.174484,0.774521c-0.392937,-0.581757 -0.815536,-1.142731 -1.222519,-1.714638zm3.5625,0.59375c-0.599342,1.107117 -1.346581,0.070763 0,0z"/>
   <path fill="url(#linearGradient2049)" fill-rule="evenodd" stroke-width="1px" id="path1323" d="m38.658348,28.249706c-0.449856,-2.75243 10.038837,-6.825428 14.704258,-8.796656c3.379654,-1.427963 6.937569,-3.029333 10.548237,-3.216791c7.485229,-0.388628 15.191132,-0.315468 22.52581,1.857681c6.371529,1.887785 13.467171,2.021269 19.428482,4.830055c4.401237,2.073717 8.221863,5.292809 11.423866,9.090508c3.268555,3.876617 6.417511,7.942337 8.658554,12.457706c1.53614,3.0951 3.130035,6.16983 3.307343,9.779152c0.526993,10.726727 1.441742,21.460972 1.356506,32.231678c-0.048157,6.085159 1.231522,12.523552 -0.629196,18.343819c-3.563812,11.147423 -9.923241,21.218933 -13.951317,32.233414c-1.389732,3.800125 -0.55719,9.771194 -3.925575,11.409027c-2.014763,0.97966 -2.976486,-3.027557 -4.197449,-4.657501c-3.210434,-4.285873 -3.645126,-9.805237 -5.57547,-14.69632c-3.473816,-8.80191 -4.271736,-18.339149 -6.202774,-27.542252c-2.513756,-11.980316 -6.674141,-24.05233 -10.472366,-35.694801c-1.664536,-5.102238 -2.744019,-11.23978 -6.263626,-14.844566c-3.414337,-3.496983 -9.666969,-3.950165 -14.372932,-6.11314c-4.147453,-1.906292 -8.540829,-3.761887 -12.097702,-6.536591c-4.742989,-3.699997 -13.720661,-6.806032 -14.264648,-10.134422z"/>
   <path fill="#ffffff" fill-rule="nonzero" stroke-width="10" stroke-miterlimit="4" stroke-dashoffset="0" id="path2220" d="m112.732231,134.645752l-1,3.5l-1.28125,-3.34375l-0.03125,0.6875l-0.3125,-0.8125l-0.0625,2.65625l-1.3125,-2.15625l0.125,0.8125l-0.4375,-0.6875l0.625,3.59375l-2.625,-2.46875l1.21875,2.78125l-2.625,-1.6875l1.9375,2.8125l-3.4375,-1.375l2.53125,2.5l-3.375,-0.6875l3.21875,2.1875l-2.5625,0.15625l-1.09375,0.0625l-0.25,0.03125l3.0625,1.03125l-2.875,0.6875l0.5,0.09375l-0.65625,0.15625l3.90625,0.5625l-3.3125,1.8125l3.09375,-0.3125l-2.34375,1.9375l2.65625,-0.78125l-1.96875,2.3125l3.0625,-1.5625l-1.71875,3.0625l3.15625,-2.46875l-0.96875,3.8125l0.0625,-0.09375l-0.03125,0.15625l2.03125,-2.59375l-0.21875,3.15625l0,0.03125l0,0.125l1.875,-3.75l0.75,4.03125l0.71875,-3.28125l1.15625,3l0.0625,-2.6875l1.40625,2.21875l-0.5,-3.09375l2.21875,2.40625l-1.34375,-3.75l3.4375,2.28125l-0.25,-0.375l0.1875,0.125l-1.8125,-2.59375l1.21875,0.46875l1.9375,0.8125l-2.78125,-2.8125l3.96875,0.5l-3,-1.75l3.46875,-0.1875l-3.25,-1.125l2.96875,-0.75l-2.90625,-0.4375l2.6875,-1.25l-3.625,0.125l2.96875,-2.40625l-0.9375,0.28125l0.65625,-0.5625l-2.5,0.78125l1.84375,-2.15625l-0.5,0.25l0.25,-0.3125l-3.21875,1.6875l1.625,-3.40625l-2.46875,2.1875l0.875,-3.3125l-2.34375,3.0625l0.28125,-3.71875l-1.46875,2.875l-0.34375,-3.0625z"/>
   <path fill="url(#linearGradient2051)" fill-rule="evenodd" stroke-width="1px" d="m38.658348,28.249706c-0.449856,-2.75243 10.038837,-6.825428 14.704258,-8.796656c3.379654,-1.427963 6.937569,-3.029333 10.548237,-3.216791c7.485229,-0.388628 15.191132,-0.315468 22.52581,1.857681c6.371529,1.887785 13.467171,2.021269 19.428482,4.830055c4.401237,2.073717 8.221863,5.292809 11.423866,9.090508c3.268555,3.876617 6.417511,7.942337 8.658554,12.457706c1.53614,3.0951 4.557373,6.388557 3.307343,9.779152c-3.37867,9.164459 -6.344215,10.967548 -9.767212,15.225552c-7.332596,9.121338 -8.376678,21.218925 -12.404747,32.233421c-1.38974,3.800125 -0.55719,9.771194 -3.925575,11.409019c-2.014771,0.979652 -2.976494,-3.02755 -4.197449,-4.657509c-3.210434,-4.285873 -1.301735,-11.367508 -3.232079,-16.258575c-3.473824,-8.801918 -6.599426,-15.995758 -10.09272,-25.979988c-4.042679,-11.55439 5.382629,12.859886 1.584412,1.2174c-1.664543,-5.102226 -4.30629,-12.802036 -7.825897,-16.406822c-3.414337,-3.496983 -9.666969,-3.950165 -14.372932,-6.11314c-4.147453,-1.906292 -8.540829,-3.761887 -12.097702,-6.536591c-4.742989,-3.699997 -13.720661,-6.806032 -14.264648,-10.134422z" id="path4547"/>
  </g>
 </g>
</svg>